<svg width="143" height="48" viewBox="0 0 143 48" fill="none" xmlns="http://www.w3.org/2000/svg">
<rect x="0.804688" width="142" height="48" rx="6" fill="black"/>
<path d="M34.2695 25.0815C34.2695 29.9672 36.6883 32.4489 41.474 32.4489C46.2448 32.4489 48.6562 29.9672 48.6562 25.0815C48.6562 20.1773 46.2448 17.6956 41.474 17.6956C36.6883 17.6956 34.2695 20.1773 34.2695 25.0815ZM37.7736 25.0815C37.7736 21.8626 38.807 20.5588 41.4443 20.5588C44.1372 20.5588 45.1484 21.8182 45.1484 25.0815C45.1484 28.304 44.1113 29.6079 41.4443 29.6079C38.77 29.6079 37.7736 28.3559 37.7736 25.0815Z" fill="white"/>
<path d="M77.7578 25.0815C77.7578 29.9672 80.1914 32.4489 84.9697 32.4489C89.7331 32.4489 92.1482 29.9672 92.1482 25.0815C92.1482 20.1773 89.7331 17.6956 84.9697 17.6956C80.1877 17.6956 77.7578 20.1773 77.7578 25.0815ZM81.273 25.0815C81.273 21.8626 82.299 20.5588 84.9363 20.5588C87.6329 20.5588 88.633 21.8182 88.633 25.0815C88.633 28.304 87.5958 29.6079 84.9363 29.6079C82.2657 29.6079 81.273 28.3559 81.273 25.0815Z" fill="white"/>
<path d="M117.91 14.6471V28.0262C117.91 30.7524 119.547 32.197 122.651 32.197H125.678C126.455 32.197 126.804 31.5044 126.804 30.8376C126.804 30.1672 126.455 29.4745 125.678 29.4745H123.922C122.318 29.4745 121.481 29.3745 121.481 27.4743V21.0033H125.433C126.211 21.0033 126.559 20.3069 126.559 19.6328C126.559 18.9698 126.211 18.2734 125.433 18.2734L121.481 18.2808V14.6471C121.481 13.7248 120.825 13.1692 119.755 13.1692C118.892 13.1692 117.91 13.5581 117.91 14.6471Z" fill="white"/>
<path d="M51.3203 14.6471V28.0262C51.3203 30.7524 52.9612 32.197 56.08 32.197H59.1063C59.8767 32.197 60.2212 31.5044 60.2212 30.8376C60.2212 30.1672 59.8767 29.4745 59.1063 29.4745H57.3394C55.7356 29.4745 54.8985 29.3745 54.8985 27.4743V21.0033H58.847C59.6249 21.0033 59.973 20.3069 59.973 19.6328C59.973 18.9698 59.6249 18.2734 58.847 18.2734H54.8985V14.6471C54.8985 13.7248 54.2539 13.1692 53.1686 13.1692C52.313 13.1692 51.3203 13.5581 51.3203 14.6471Z" fill="white"/>
<path d="M107.388 17.9956C103.287 17.9956 101.535 19.6254 101.535 23.448V30.6932C101.535 31.6044 102.202 32.1378 103.324 32.1378C104.439 32.1378 105.11 31.6007 105.11 30.7006V23.6999C105.11 21.6552 105.465 21.0181 107.684 21.0181H108.721C110.94 21.0181 111.307 21.6552 111.307 23.6999V30.6932C111.292 31.6044 111.97 32.1378 113.084 32.1378C114.203 32.1378 114.87 31.6007 114.87 30.7006V23.4443C114.87 19.6217 113.118 17.9919 109.014 17.9919H107.388V17.9956Z" fill="white"/>
<path d="M94.8086 19.5365V30.6228C94.8086 31.76 95.742 32.1711 96.6162 32.1711C97.4903 32.1711 98.4127 31.76 98.4127 30.6228V19.5365C98.4127 18.3956 97.4903 17.9845 96.6051 17.9845C95.742 17.9845 94.8086 18.3956 94.8086 19.5365Z" fill="white"/>
<path d="M94.5859 14.1137C94.5859 15.2435 95.5008 16.1547 96.6047 16.1547C97.7307 16.1547 98.6345 15.2435 98.6345 14.1137C98.6345 12.9877 97.7344 12.0654 96.6047 12.0654C95.5008 12.0654 94.5859 12.9877 94.5859 14.1137Z" fill="white"/>
<path d="M64.3433 18.4142C62.958 18.7216 62.1875 19.5921 62.1875 21.1145V36.4568C62.1875 37.5421 63.1024 37.9347 63.9692 37.9347C64.8322 37.9347 65.7545 37.5421 65.7545 36.4568V31.9971C66.5991 32.1823 67.351 32.2675 68.34 32.2675C70.5217 32.2675 71.6551 31.897 72.896 31.1562C74.7295 30.0598 75.8148 28.0004 75.8148 25.2482C75.8148 20.4514 73.3664 18.0142 68.5104 18.0142C67.1954 18.0142 65.573 18.1364 64.3433 18.4142ZM65.7508 29.2338V21.17C66.4805 21.0145 67.3954 20.9367 68.2696 20.9367C71.0958 20.9367 72.233 21.9923 72.233 24.9667C72.233 28.3115 71.281 29.4672 68.214 29.4672C67.3769 29.4709 66.3879 29.3894 65.7508 29.2338Z" fill="white"/>
<path d="M28.0429 14.2248V20.7218H20.3791V14.2248C20.3791 13.3062 19.7346 12.7617 18.6493 12.7617C17.8011 12.7617 16.8047 13.1432 16.8047 14.2248V30.6783C16.8047 31.597 17.4566 32.1489 18.5456 32.1489C19.4012 32.1489 20.3791 31.7636 20.3791 30.6783V23.9814H28.0429V30.6746C28.0429 31.5933 28.6948 32.1452 29.7801 32.1452C30.6246 32.1452 31.621 31.7599 31.621 30.6746V14.2248C31.621 13.3062 30.9654 12.7617 29.8764 12.7617C29.0318 12.7617 28.0429 13.1432 28.0429 14.2248Z" fill="white"/>
</svg>
